<svg viewBox="0 0 42 40" fill="none" xmlns="http://www.w3.org/2000/svg">
<path d="M16.3779 0.360182C15.2523 0.742102 13.2824 1.70696 12.9909 2.02858C12.7095 2.34014 12.7597 2.92308 13.1115 3.35525C13.6743 4.05879 14.2774 4.97339 14.2472 5.08395C14.2271 5.14425 13.9356 5.43572 13.5839 5.72718C13.2321 6.0086 12.6894 6.56138 12.3879 6.93325L11.825 7.62674L11.2622 7.26492C10.9506 7.06391 10.4782 6.72219 10.2069 6.49103C9.55359 5.9483 9.05106 5.91815 8.64904 6.40057C7.99575 7.18452 6.71933 10.3002 6.70928 11.1444C6.69923 11.8982 6.94044 12.049 8.48823 12.24C8.93045 12.3003 9.41288 12.3907 9.55359 12.441C9.80485 12.5415 9.80485 12.5415 9.72445 13.3355C9.64404 14.0591 9.6943 15.4963 9.80485 15.8984C9.84506 16.029 9.72445 16.0893 9.17167 16.2099C8.7998 16.2903 8.18671 16.3908 7.82489 16.431C7.00074 16.5114 6.69923 16.7627 6.70928 17.3557C6.72938 18.3507 8.14651 21.7377 8.75959 22.2604C9.23197 22.6624 9.50334 22.592 10.5184 21.8181C11.6743 20.9437 11.7949 20.9035 12.0763 21.2754C12.3577 21.6473 13.6341 22.9137 14.016 23.2051L14.3075 23.4262L14.0864 23.8484C13.9658 24.0896 13.6241 24.562 13.3326 24.9137C12.9105 25.4364 12.81 25.6273 12.81 25.9288C12.81 26.4113 12.9406 26.552 13.7748 27.0444C15.2523 27.8987 17.7046 28.743 18.1971 28.552C18.6393 28.3912 18.7901 28.1098 18.8906 27.2756C18.9408 26.8434 19.0313 26.2504 19.1016 25.9791L19.2122 25.4665L20.1067 25.557C20.6193 25.6072 21.3831 25.6072 21.8957 25.557L22.7902 25.4665L22.951 26.2102C23.0415 26.6123 23.1118 27.0846 23.1118 27.2656C23.1118 27.9088 23.2927 28.3108 23.6646 28.4817C24.0063 28.6425 24.0566 28.6425 24.9611 28.4013C26.0566 28.1098 27.6446 27.4364 28.4688 26.9037C29.3733 26.3208 29.4437 25.8685 28.7502 25.0343C28.5391 24.7831 28.2074 24.3207 28.0064 24.0092L27.6446 23.4463L28.127 23.0845C28.6095 22.7126 29.514 21.8081 29.9261 21.2654L30.1573 20.9639L30.5291 21.1649C30.7301 21.2654 31.1221 21.5367 31.4035 21.7578C32.5191 22.6624 32.7905 22.7227 33.3031 22.1699C34.0066 21.4262 35.273 18.3306 35.273 17.3557C35.273 16.7527 35.0016 16.5215 34.2177 16.431C33.886 16.4009 33.283 16.3004 32.881 16.22C32.2277 16.0793 32.1573 16.0491 32.1975 15.8481C32.3181 15.3054 32.3483 14.0491 32.2779 13.3355C32.1975 12.5515 32.1975 12.5415 32.4488 12.451C32.5794 12.3907 33.0317 12.3103 33.4538 12.25C33.876 12.1897 34.3684 12.1193 34.5494 12.0992C35.3635 11.9786 35.464 11.3053 34.9212 9.66701C34.5393 8.5313 33.5644 6.55133 33.2428 6.25986C33.1322 6.15936 32.891 6.07895 32.6699 6.07895C32.3583 6.07895 32.1674 6.17946 31.6447 6.60159C31.293 6.89305 30.8105 7.23477 30.5794 7.35538L30.1472 7.58654L29.8758 7.23477C29.5341 6.7825 28.4889 5.73724 28.0466 5.40557C27.725 5.1543 27.7049 5.12415 27.8255 4.84274C27.8959 4.68193 28.2175 4.2196 28.5391 3.80753C29.6346 2.44065 29.5241 2.14918 27.4436 1.10392C26.3481 0.561192 24.6596 -0.00164032 24.0968 -0.00164032C23.4334 -0.00164032 23.2324 0.259676 23.1118 1.26473C23.0616 1.69691 22.9711 2.27984 22.9007 2.56126L22.7902 3.06378H21.0012H19.2122L19.1016 2.61151C19.0413 2.36024 18.9408 1.77731 18.8906 1.31499C18.7298 -0.132298 18.3076 -0.293106 16.3779 0.360182ZM17.182 2.36024C17.182 2.82257 17.7951 4.54122 18.0564 4.80253C18.2875 5.0337 18.3378 5.04375 18.971 4.96334C19.3428 4.91309 20.2574 4.87289 21.0012 4.87289C21.7449 4.87289 22.6595 4.91309 23.0314 4.96334C23.6646 5.04375 23.7148 5.0337 23.946 4.80253C24.2073 4.53117 24.8204 2.82257 24.8204 2.35019C24.8204 2.10898 24.8506 2.08888 25.142 2.14918C25.5139 2.21954 26.8305 2.81252 26.8305 2.90298C26.8305 2.93313 26.7401 3.09394 26.6195 3.2648C26.2174 3.85778 25.6244 5.16435 25.6244 5.48597C25.6244 5.87794 25.7652 6.0287 26.7602 6.77244C27.5542 7.36543 28.3482 8.20968 28.921 9.05392C29.2527 9.55645 29.4035 9.64691 29.8256 9.64691C30.1372 9.64691 31.1623 9.18458 31.886 8.72226C32.1473 8.5514 32.3784 8.43079 32.3985 8.45089C32.5292 8.5916 33.2629 10.2801 33.2629 10.4208C33.2629 10.4409 33.1624 10.451 33.0317 10.451C32.7101 10.451 31.4236 10.8228 30.901 11.064C30.298 11.3455 30.1774 11.657 30.3382 12.5716C30.509 13.4963 30.509 14.9637 30.3382 15.9788C30.2276 16.6924 30.2276 16.8431 30.3583 17.0642C30.5392 17.3858 31.4839 17.808 32.5091 18.019C33.0016 18.1195 33.2026 18.21 33.1825 18.3004C33.1724 18.3809 32.9915 18.8331 32.8006 19.3156L32.4387 20.1799L31.8759 19.8281C31.1925 19.3859 30.1171 18.8934 29.8557 18.8934C29.4839 18.8934 29.1924 19.1045 28.8105 19.6472C28.2175 20.4915 27.4838 21.2453 26.6496 21.8684C26.2275 22.18 25.8154 22.5116 25.7551 22.592C25.4435 22.974 25.6948 23.8182 26.4888 25.0444L26.921 25.7178L26.0667 26.0695C24.8606 26.5721 24.9008 26.5721 24.7702 25.9288C24.6294 25.2554 24.4485 24.7027 24.1973 24.1499C23.9259 23.5669 23.6244 23.4664 22.6897 23.6273C21.7248 23.7881 20.3479 23.7981 19.3328 23.6273C18.2071 23.4463 18.0061 23.5468 17.6342 24.5419C17.4835 24.9439 17.3026 25.5469 17.2322 25.8786C17.0915 26.5821 17.1418 26.5721 15.9257 26.0695L15.0714 25.7077L15.3729 25.2655C15.8352 24.5921 16.3779 23.4061 16.3779 23.0544C16.3779 22.6825 16.1568 22.4312 15.2824 21.8181C14.5688 21.3056 13.7045 20.4111 13.2019 19.6472C12.8502 19.1246 12.5286 18.8934 12.1466 18.8934C11.8753 18.8934 10.5787 19.4965 10.0159 19.8884L9.56364 20.2L9.20182 19.3457C8.68924 18.1195 8.67919 18.1798 9.49329 18.019C10.5084 17.808 11.4632 17.3858 11.6441 17.0642C11.7748 16.8431 11.7748 16.6924 11.6642 15.9788C11.4933 14.9637 11.4933 13.4963 11.6642 12.5716C11.825 11.657 11.7044 11.3455 11.1014 11.064C10.5888 10.8228 9.29227 10.451 8.97066 10.451H8.74954L8.93045 9.91827C9.12141 9.39565 9.54354 8.44084 9.59379 8.44084C9.61389 8.44084 9.92546 8.62175 10.2873 8.84286C11.1014 9.34539 11.8652 9.64691 12.2773 9.64691C12.609 9.64691 12.6793 9.58661 13.6643 8.32023C14.006 7.87801 14.609 7.27497 15.0513 6.93325C16.3176 5.9483 16.3779 5.87794 16.3779 5.53622C16.3779 5.1744 16.0262 4.34021 15.5136 3.49596C15.3126 3.17434 15.1618 2.88287 15.1819 2.87282C15.2724 2.79242 16.1468 2.37029 16.4684 2.25974C17.0312 2.04868 17.182 2.06878 17.182 2.36024Z" fill="#3A86FF"/>
<path d="M19.6244 8.78251C17.6947 9.25488 16.0464 10.8931 15.5238 12.863C15.4434 13.1646 15.373 13.7977 15.373 14.2601C15.373 15.8682 15.8856 17.1144 17.0213 18.2501C18.1671 19.3959 19.3832 19.8984 21.0014 19.8984C22.6195 19.8984 23.8356 19.3959 24.9814 18.2501C26.1171 17.1144 26.6297 15.8682 26.6297 14.2601C26.6297 12.6721 26.097 11.4158 24.9814 10.2901C24.1974 9.50615 23.2125 8.95337 22.2275 8.75236C21.534 8.61165 20.2878 8.6217 19.6244 8.78251ZM22.6396 10.8328C23.4135 11.2147 24.1271 11.9484 24.499 12.7424C24.7301 13.2349 24.7703 13.446 24.7703 14.2701C24.7703 15.1043 24.7301 15.3053 24.4889 15.828C24.1371 16.5918 23.4336 17.3154 22.6597 17.7175C22.0969 18.0089 21.9863 18.0391 21.0516 18.0391C20.1571 18.0391 19.9762 18.0089 19.4435 17.7577C18.6495 17.3858 17.8756 16.6119 17.5138 15.838C17.2726 15.3053 17.2324 15.1043 17.2324 14.2701C17.2324 13.446 17.2726 13.2349 17.5038 12.7424C17.9761 11.7374 18.8807 10.9333 19.926 10.5916C20.1873 10.5012 20.6596 10.461 21.1722 10.4811C21.8456 10.5112 22.0969 10.5715 22.6396 10.8328Z" fill="#3A86FF"/>
<path d="M3.81432 30.8942C2.26653 31.3264 1.11072 32.4319 0.59814 33.9697C0.306674 34.834 0.346876 36.231 0.698646 37.1155C1.11072 38.2009 2.18613 39.2663 3.31179 39.7286L3.86458 39.9497L18.2369 39.9799L32.6092 40L36.931 38.0904C39.3129 37.0351 41.3331 36.0803 41.4336 35.9697C41.6648 35.6883 41.6547 35.0652 41.4135 34.8139C41.313 34.6933 39.2727 33.7385 36.8907 32.6832L32.559 30.7535L18.4077 30.7635C7.40238 30.7736 4.16609 30.8037 3.81432 30.8942ZM7.93506 35.3868V38.211L6.0556 38.1708C3.93493 38.1406 3.71382 38.0803 3.00023 37.3165C2.48765 36.7838 2.28664 36.3416 2.22633 35.618C2.11578 34.2511 2.93992 33.0752 4.31685 32.653C4.45756 32.6128 5.32191 32.5726 6.25661 32.5726L7.93506 32.5626V35.3868ZM31.3529 35.3767V38.1909H20.5485H9.74416V35.3767V32.5626H20.5485H31.3529V35.3767ZM35.8254 34.2209C37.1521 34.8039 38.2677 35.3164 38.3079 35.3566C38.3481 35.3968 37.2626 35.9195 35.8957 36.5225C34.5289 37.1255 33.3831 37.6381 33.3429 37.6582C33.2926 37.6783 33.2625 36.6532 33.2625 35.3767C33.2625 34.1003 33.2926 33.0752 33.3429 33.0953C33.3831 33.1254 34.4987 33.6279 35.8254 34.2209Z" fill="#3A86FF"/>
</svg>
