<svg viewBox="0 0 41 40" fill="none" xmlns="http://www.w3.org/2000/svg">
<path d="M8.62606 0.118628C4.91366 0.790768 1.91248 3.74506 1.15436 7.47309C0.927712 8.56727 0.927712 10.1773 1.15436 11.2715C1.92029 15.0308 4.92929 17.9772 8.68077 18.6337C9.55612 18.7822 11.1661 18.7822 12.018 18.6337C14.4956 18.2039 16.8871 16.6486 18.1845 14.6244L18.5362 14.0694H20.8027C23.4366 14.0616 23.2178 14.1163 23.9681 13.1785C24.2338 12.8502 24.4683 12.5767 24.4839 12.5767C24.4995 12.5767 25.1091 13.3739 25.8438 14.3508C26.5785 15.3278 27.274 16.1875 27.3913 16.2656C27.6805 16.4532 28.3839 16.4532 28.673 16.2656C28.7903 16.1875 29.478 15.3434 30.1893 14.3899C30.9083 13.4364 31.5179 12.6548 31.5492 12.6548C31.5804 12.6548 32.1901 13.4364 32.9091 14.3899C33.6203 15.3434 34.3081 16.1875 34.4253 16.2656C34.7067 16.4532 35.4179 16.4532 35.7071 16.2656C35.9025 16.1406 40.7637 10.2242 40.9279 9.91155C40.9748 9.8334 41.006 9.5833 41.006 9.34883C41.006 8.92679 40.9982 8.90334 39.865 7.29333C39.2319 6.39454 38.6145 5.5192 38.4894 5.34725C38.3722 5.16749 38.1533 4.95647 38.0127 4.87832C37.7704 4.72201 37.5203 4.72201 28.1494 4.69856L18.5362 4.6673L18.1845 4.12021C17.4733 3.01039 16.1915 1.83024 14.9645 1.14247C14.2064 0.720427 13.1669 0.337463 12.2681 0.157705C11.3224 -0.0376835 9.58738 -0.0533161 8.62606 0.118628ZM12.2056 2.64306C14.0188 3.13544 15.6054 4.4172 16.5589 6.14444C16.7699 6.52741 16.9575 6.76969 17.1529 6.88692L17.442 7.06668L27.0943 7.09013L36.7465 7.11357L37.5125 8.20776C38.2159 9.19252 38.2784 9.31757 38.1768 9.45043C38.1221 9.53641 37.4109 10.4274 36.5902 11.4278L35.1053 13.2488L33.7532 11.4512C33.0107 10.4665 32.3073 9.59111 32.1901 9.51296C31.9009 9.32539 31.1975 9.32539 30.9083 9.51296C30.7911 9.59111 30.1033 10.4352 29.3921 11.3887C28.673 12.3422 28.0634 13.1238 28.0322 13.1238C28.0009 13.1238 27.3913 12.3422 26.6722 11.3887C25.961 10.4352 25.2733 9.59111 25.156 9.51296C24.8747 9.32539 24.1634 9.32539 23.8821 9.51296C23.7649 9.5833 23.2959 10.1148 22.8426 10.6775L22.0063 11.717H19.6929C16.9575 11.717 17.0591 11.6935 16.5589 12.6001C14.816 15.7732 11.1349 17.1566 7.82887 15.867C5.67959 15.0308 4.00705 13.0612 3.5303 10.7791C3.38181 10.0679 3.38181 8.67669 3.5303 7.96547C3.81166 6.62901 4.49162 5.39415 5.49201 4.40938C7.26615 2.65869 9.80622 1.99437 12.2056 2.64306Z" fill="#3A86FF"/>
<path d="M9.20404 6.00394C8.26617 6.35564 7.58621 6.97307 7.14072 7.87968C6.89844 8.37987 6.89062 8.43458 6.89062 9.37245C6.89062 10.3103 6.89844 10.365 7.14072 10.8652C7.59403 11.7875 8.2818 12.4049 9.24312 12.741C9.62608 12.8738 9.84492 12.8973 10.5249 12.8738C11.2674 12.8504 11.4002 12.8191 11.8926 12.5768C12.6116 12.233 13.2291 11.6155 13.5808 10.8965C13.8387 10.365 13.8465 10.326 13.8465 9.37245C13.8465 8.41895 13.8387 8.37987 13.5808 7.84841C13.2291 7.12938 12.6116 6.51195 11.8926 6.16806C11.3846 5.91796 11.2752 5.89452 10.4858 5.87889C9.78239 5.85544 9.54792 5.87889 9.20404 6.00394ZM10.9469 8.42677C11.283 8.65342 11.4627 8.97386 11.4627 9.37245C11.4627 9.9977 10.9938 10.4666 10.3686 10.4666C9.74331 10.4666 9.27438 9.9977 9.27438 9.37245C9.27438 8.74721 9.74331 8.27827 10.3686 8.27827C10.5796 8.27827 10.8062 8.3408 10.9469 8.42677Z" fill="#3A86FF"/>
<path d="M32.0666 18.978C31.9494 19.0562 31.7774 19.2281 31.6993 19.3454C31.5586 19.5642 31.5508 19.9003 31.5508 29.4196C31.5508 38.939 31.5586 39.2751 31.6993 39.4939C31.7774 39.6112 31.9494 39.7831 32.0666 39.8613C32.2776 40.002 32.4808 40.0098 35.0678 40.0098C37.6548 40.0098 37.858 40.002 38.069 39.8613C38.1862 39.7831 38.3582 39.6112 38.4363 39.4939C38.577 39.2751 38.5848 38.939 38.5848 29.4196C38.5848 19.9003 38.577 19.5642 38.4363 19.3454C38.3582 19.2281 38.1862 19.0562 38.069 18.978C37.858 18.8373 37.6548 18.8295 35.0678 18.8295C32.4808 18.8295 32.2776 18.8373 32.0666 18.978ZM36.2401 29.4196V37.6651H35.0678H33.8955V29.4196V21.1742H35.0678H36.2401V29.4196Z" fill="#3A86FF"/>
<path d="M22.6858 22.495C22.5685 22.5732 22.3966 22.7451 22.3184 22.8624C22.1777 23.0812 22.1699 23.386 22.1699 31.1782C22.1699 38.9703 22.1777 39.2751 22.3184 39.4939C22.3966 39.6112 22.5685 39.7831 22.6858 39.8613C22.8968 40.002 23.1 40.0098 25.6869 40.0098C28.2739 40.0098 28.4771 40.002 28.6881 39.8613C28.8054 39.7831 28.9773 39.6112 29.0555 39.4939C29.1961 39.2751 29.2039 38.9703 29.2039 31.1782C29.2039 23.386 29.1961 23.0812 29.0555 22.8624C28.9773 22.7451 28.8054 22.5732 28.6881 22.495C28.4771 22.3544 28.2739 22.3465 25.6869 22.3465C23.1 22.3465 22.8968 22.3544 22.6858 22.495ZM26.8593 31.1782V37.6651H25.6869H24.5146V31.1782V24.6912H25.6869H26.8593V31.1782Z" fill="#3A86FF"/>
<path d="M13.3088 26.0121C13.1916 26.0902 13.0196 26.2622 12.9415 26.3794C12.8008 26.5982 12.793 26.864 12.793 32.9367C12.793 39.0094 12.8008 39.2751 12.9415 39.4939C13.0196 39.6112 13.1916 39.7831 13.3088 39.8613C13.5198 40.002 13.723 40.0098 16.31 40.0098C18.8969 40.0098 19.1001 40.002 19.3112 39.8613C19.4284 39.7831 19.6003 39.6112 19.6785 39.4939C19.8192 39.2751 19.827 39.0094 19.827 32.9367C19.827 26.864 19.8192 26.5982 19.6785 26.3794C19.6003 26.2622 19.4284 26.0902 19.3112 26.0121C19.1001 25.8714 18.8969 25.8636 16.31 25.8636C13.723 25.8636 13.5198 25.8714 13.3088 26.0121ZM17.4823 32.9367V37.6651H16.31H15.1376V32.9367V28.2082H16.31H17.4823V32.9367Z" fill="#3A86FF"/>
<path d="M3.92989 30.7014C3.81266 30.7796 3.64071 30.9515 3.56256 31.0687C3.42188 31.2798 3.41406 31.5064 3.41406 35.2813C3.41406 39.0563 3.42188 39.2829 3.56256 39.4939C3.64071 39.6112 3.81266 39.7831 3.92989 39.8613C4.14091 40.002 4.34412 40.0098 6.93108 40.0098C9.51803 40.0098 9.72124 40.002 9.93226 39.8613C10.0495 39.7831 10.2214 39.6112 10.2996 39.4939C10.4403 39.2829 10.4481 39.0563 10.4481 35.2813C10.4481 31.5064 10.4403 31.2798 10.2996 31.0687C10.2214 30.9515 10.0495 30.7796 9.93226 30.7014C9.72124 30.5607 9.51803 30.5529 6.93108 30.5529C4.34412 30.5529 4.14091 30.5607 3.92989 30.7014ZM8.10341 35.2813V37.6651H6.93108H5.75874V35.2813V32.8976H6.93108H8.10341V35.2813Z" fill="#3A86FF"/>
</svg>
