<svg viewBox="0 0 42 41" fill="none" xmlns="http://www.w3.org/2000/svg">
<path d="M4.85321 0.139591C3.35956 0.573502 2.14961 1.58318 1.4904 2.94333C0.939669 4.06982 0.973046 2.88491 0.973046 20.0077C0.973046 37.1305 0.939669 35.9456 1.4904 37.0721C2.1663 38.4656 3.5181 39.5587 4.99507 39.9092C5.79613 40.0928 36.2116 40.0928 37.0127 39.9092C38.3979 39.5838 39.758 38.5157 40.4172 37.239C41.0013 36.1041 41.0264 35.9372 41.0264 32.5577C41.0264 29.7123 41.018 29.5454 40.8595 29.2867C40.3755 28.494 39.0571 28.4606 38.5481 29.245C38.4145 29.4453 38.3895 29.7624 38.3478 32.3158C38.3144 34.1265 38.2643 35.2613 38.1976 35.4616C37.9556 36.2293 37.1879 36.9803 36.4119 37.2139C35.9029 37.3725 6.09653 37.3725 5.58752 37.2139C4.77811 36.9719 4.03546 36.2293 3.79347 35.4199C3.63492 34.9109 3.63492 5.10453 3.79347 4.59552C4.03546 3.78611 4.77811 3.04346 5.58752 2.80147C6.09653 2.64293 35.9029 2.64293 36.4119 2.80147C37.1963 3.03511 37.9556 3.77777 38.1976 4.5538C38.256 4.74572 38.3144 5.73037 38.3311 7.09051L38.3728 9.32682H23.4446C8.7 9.32682 8.52476 9.32682 8.2494 9.49371C7.84886 9.74404 7.6486 10.1195 7.6486 10.6619C7.6486 11.2043 7.84886 11.5798 8.2494 11.8302C8.52476 11.997 8.7 11.997 23.4446 11.997H38.3561V17.8966C38.3561 23.6459 38.3645 23.8128 38.523 24.0798C38.7734 24.4803 39.1489 24.6806 39.6912 24.6806C40.2336 24.6806 40.6091 24.4803 40.8595 24.0798C41.0264 23.8128 41.0264 23.6375 41.0264 14.1332C41.0264 3.34386 41.0597 4.01976 40.4339 2.80981C39.8164 1.63325 38.765 0.707012 37.4967 0.239723L36.8959 0.0227699L21.1249 0.00608063C6.32183 -0.0106087 5.3205 -0.00226212 4.85321 0.139591Z" fill="#3A86FF"/>
<path d="M6.9133 4.82089C6.51277 5.07122 6.3125 5.44672 6.3125 5.98911C6.3125 6.5315 6.51277 6.907 6.9133 7.15733C7.16363 7.30753 7.33887 7.32422 8.98272 7.32422C10.6266 7.32422 10.8018 7.30753 11.0521 7.15733C11.4527 6.907 11.6529 6.5315 11.6529 5.98911C11.6529 5.44672 11.4527 5.07122 11.0521 4.82089C10.8018 4.67069 10.6266 4.654 8.98272 4.654C7.33887 4.654 7.16363 4.67069 6.9133 4.82089Z" fill="#3A86FF"/>
<path d="M19.0549 15.5021C15.4084 16.2698 12.5713 19.1236 11.8203 22.7701C11.5867 23.9049 11.62 25.9159 11.8871 26.984C12.7299 30.2801 15.3417 32.9002 18.6627 33.7764C19.7392 34.0601 21.7418 34.1018 22.8934 33.8682C25.9892 33.2257 28.5342 31.1062 29.7191 28.1689C30.3032 26.7003 30.5452 24.5475 30.1781 23.9467C29.9277 23.5461 29.5522 23.3459 29.0099 23.3459C28.1671 23.3459 27.7165 23.8048 27.6414 24.7561C27.4578 26.9256 26.6567 28.5862 25.2048 29.7878C24.0533 30.7307 22.5179 31.2814 21.0075 31.2814C19.9394 31.2814 19.13 31.0978 18.1204 30.6055C16.6851 29.9046 15.7756 28.995 15.0746 27.5598C14.5823 26.5418 14.4071 25.7908 14.4071 24.6643C14.4071 22.8035 15.0746 21.2347 16.4181 19.9246C17.5696 18.7981 18.9882 18.1973 20.8406 18.0471C21.8837 17.9637 22.3343 17.5465 22.3343 16.6703C22.3343 16.1279 22.134 15.7524 21.7335 15.5021C21.3663 15.2851 20.098 15.2851 19.0549 15.5021Z" fill="#3A86FF"/>
<path d="M26.7576 17.7626C26.6491 17.8127 26.4822 17.9128 26.3904 17.9879C26.307 18.063 24.8634 19.757 23.1945 21.7346C21.5172 23.7206 20.1404 25.3477 20.1321 25.3477C20.1154 25.3477 19.8317 24.9806 19.4895 24.5383C18.6468 23.4202 18.338 23.0864 18.0209 22.9529C16.9528 22.5106 15.8514 23.4702 16.1518 24.5717C16.2769 25.0056 19.0556 28.5854 19.4228 28.7856C19.7733 28.9692 20.3407 28.9776 20.7162 28.8023C20.9081 28.7105 22.1097 27.3504 24.6464 24.3297C26.6574 21.9432 28.3764 19.8738 28.4682 19.7319C28.7018 19.3648 28.6851 18.7139 28.4348 18.305C28.1094 17.7877 27.3333 17.5373 26.7576 17.7626Z" fill="#3A86FF"/>
</svg>
