<svg width="60" height="60" viewBox="0 0 60 60" fill="none" xmlns="http://www.w3.org/2000/svg">
<rect x="0.5" width="59" height="60" rx="10" fill="none"/>
<path d="M35.6713 28.0957C35.2881 27.7044 34.8217 27.4044 34.3067 27.218C33.7918 27.0317 33.2414 26.9637 32.6965 27.0192C32.1517 27.0747 31.6263 27.2522 31.1595 27.5385C30.6926 27.8248 30.2963 28.2127 29.9998 28.6732C29.7035 28.2125 29.3071 27.8246 28.8403 27.5382C28.3734 27.2518 27.848 27.0742 27.3031 27.0188C26.7582 26.9633 26.2078 27.0313 25.6928 27.2177C25.1778 27.4042 24.7114 27.7042 24.3283 28.0957C23.637 28.8027 23.25 29.7521 23.25 30.7409C23.25 31.7297 23.637 32.6792 24.3283 33.3862L29.9998 39.1499L35.6728 33.3869C36.3636 32.6794 36.7501 31.7298 36.7498 30.741C36.7496 29.7522 36.3625 28.8028 35.6713 28.0957V28.0957Z" stroke="#3A86FF" stroke-width="2" strokeMiterlimit="10" stroke-linecap="round" stroke-linejoin="round"/>
<path d="M43.5 45H16.5C15.7044 45 14.9413 44.6839 14.3787 44.1213C13.8161 43.5587 13.5 42.7956 13.5 42V15H25.5L29.25 21H46.5V42C46.5 42.7956 46.1839 43.5587 45.6213 44.1213C45.0587 44.6839 44.2956 45 43.5 45Z" stroke="#3A86FF" stroke-width="2" strokeMiterlimit="10" stroke-linecap="round" stroke-linejoin="round"/>
</svg>
